<svg width="464" height="490" viewBox="0 0 464 490" fill="none" xmlns="http://www.w3.org/2000/svg">
<g clip-path="url(#clip0_59001_100)">
<path d="M340.68 471.769L311.809 453.341L349.414 464.108C373.039 441.538 390.345 410.268 390.345 410.268C390.345 410.268 327.071 371.631 288.094 381.942C249.117 392.252 241.638 419.023 249.199 447.606C256.76 476.188 276.498 495.759 315.475 485.449C324.15 483.154 332.671 478.153 340.68 471.769Z" fill="#EDB9B9"/>
<path d="M308.937 447.397L307.016 447.905C284.654 453.698 266.234 454.541 252.01 450.397C251.801 450.34 251.6 450.271 251.391 450.214L251.677 449.253L251.962 448.333C267.38 453.027 286.874 450.974 306.38 445.926C307.011 445.769 307.65 445.61 308.285 445.432C316.524 443.222 324.731 440.512 332.621 437.56C333.234 437.337 333.853 437.101 334.473 436.866C344.866 432.916 354.653 428.597 363.089 424.595C363.687 424.315 364.282 424.025 364.867 423.738C379.118 416.905 389.217 411.109 391.447 409.807C391.722 409.653 391.871 409.563 391.906 409.543L392.402 410.379L392.414 410.386L392.913 411.231C392.877 411.25 392.378 411.555 391.44 412.088C387.943 414.102 378.418 419.451 365.618 425.615C365.04 425.89 364.445 426.18 363.847 426.46C357.005 429.715 349.308 433.166 341.139 436.446C339.089 437.274 337.059 438.065 335.051 438.82C334.434 439.065 333.814 439.3 333.201 439.523C324.673 442.715 316.585 445.34 308.937 447.397Z" fill="white"/>
<path d="M365.618 425.615C365.364 425.001 365.107 424.377 364.867 423.738C364.212 422.004 363.647 420.238 363.172 418.447C361.143 410.814 360.851 402.823 362.319 395.063C361.709 394.797 361.1 394.531 360.478 394.258C358.857 402.441 359.128 410.887 361.27 418.95C361.777 420.863 362.384 422.747 363.089 424.595C363.327 425.224 363.584 425.848 363.847 426.46C365.993 431.521 368.895 436.226 372.454 440.415C372.869 439.868 373.277 439.333 373.678 438.809C370.356 434.832 367.64 430.386 365.618 425.615Z" fill="white"/>
<path d="M335.051 438.82C334.839 438.174 334.646 437.523 334.473 436.867C334.41 436.669 334.355 436.46 334.302 436.26C332.114 427.987 331.958 419.307 333.849 410.961C335.739 402.614 339.62 394.849 345.161 388.327C344.499 388.095 343.837 387.863 343.168 387.643C337.6 394.386 333.72 402.359 331.847 410.902C329.974 419.444 330.164 428.309 332.4 436.764C332.471 437.03 332.541 437.296 332.621 437.56C332.807 438.223 332.999 438.874 333.201 439.523C336.408 449.54 342.432 458.422 350.552 465.107C351.033 464.654 351.514 464.201 351.992 463.739C344.04 457.258 338.153 448.598 335.051 438.82Z" fill="white"/>
<path d="M308.937 447.397C308.704 446.746 308.49 446.09 308.285 445.432C308.068 444.726 307.86 444.018 307.672 443.305C304.744 432.184 305.496 420.414 309.817 409.758C314.138 399.101 321.795 390.13 331.641 384.189C330.757 383.965 329.883 383.738 329.004 383.533C319.288 389.863 311.813 399.093 307.642 409.914C303.471 420.734 302.816 432.594 305.769 443.808C305.958 444.521 306.156 445.232 306.38 445.926C306.578 446.596 306.792 447.252 307.016 447.905C311.625 461.074 321.067 472 333.429 478.469C334.08 478.083 334.714 477.671 335.357 477.257C323.003 471.118 313.526 460.407 308.937 447.397Z" fill="white"/>
<path d="M270.737 486.394L127.965 428.925C119.409 425.47 112.574 418.763 108.958 410.274C105.341 401.785 105.24 392.209 108.676 383.645L254.141 22.2574C257.596 13.7019 264.303 6.8661 272.792 3.24984C281.281 -0.366415 290.857 -0.467847 299.421 2.9678L442.193 60.436C450.748 63.8911 457.584 70.5987 461.2 79.0874C464.816 87.5761 464.918 97.1526 461.482 105.716L316.017 467.104C312.562 475.66 305.854 482.495 297.365 486.112C288.877 489.728 279.3 489.829 270.737 486.394Z" fill="#3F3D56"/>
<path d="M436.561 69.8152L420.669 63.4184C419.25 62.8488 417.663 62.8655 416.256 63.4647C414.849 64.064 413.738 65.1968 413.166 66.6146C411.996 69.5133 409.723 71.8295 406.848 73.0546C403.972 74.2797 400.727 74.3138 397.826 73.1493L320.102 41.8637C317.203 40.6937 314.887 38.4214 313.662 35.5455C312.436 32.6696 312.402 29.4252 313.567 26.5242C314.136 25.1053 314.12 23.5184 313.52 22.1118C312.921 20.7051 311.788 19.5937 310.371 19.0214L296.358 13.381C289.863 10.7763 282.6 10.8537 276.162 13.5964C269.724 16.339 264.637 21.5229 262.015 28.0112L117.584 386.83C114.979 393.325 115.057 400.588 117.799 407.026C120.542 413.464 125.726 418.552 132.214 421.173L272.417 477.607C278.912 480.212 286.175 480.134 292.613 477.392C299.051 474.649 304.138 469.465 306.759 462.977L451.191 104.158C453.795 97.6627 453.718 90.3999 450.975 83.9619C448.233 77.524 443.049 72.4365 436.561 69.8152Z" fill="white"/>
<path d="M382.195 56.3034L338.347 38.6536C337.931 38.4864 337.599 38.1611 337.424 37.7492C337.248 37.3373 337.244 36.8725 337.411 36.4572C337.578 36.0419 337.903 35.7099 338.315 35.5345C338.727 35.359 339.192 35.3543 339.607 35.5215L383.456 53.1714C383.662 53.2541 383.849 53.3766 384.007 53.5318C384.165 53.687 384.292 53.8718 384.379 54.0758C384.465 54.2797 384.511 54.4988 384.514 54.7205C384.516 54.9421 384.474 55.1621 384.392 55.3677C384.309 55.5734 384.186 55.7607 384.031 55.919C383.876 56.0774 383.691 56.2036 383.487 56.2905C383.283 56.3773 383.064 56.4232 382.842 56.4254C382.621 56.4277 382.401 56.3862 382.195 56.3034Z" fill="white"/>
<path d="M389.716 58.8612C390.462 58.8612 391.066 58.2565 391.066 57.5107C391.066 56.7648 390.462 56.1602 389.716 56.1602C388.97 56.1602 388.365 56.7648 388.365 57.5107C388.365 58.2565 388.97 58.8612 389.716 58.8612Z" fill="white"/>
<path d="M418.368 216.443C417.621 216.142 417.024 215.556 416.708 214.815C416.393 214.074 416.384 213.237 416.684 212.49L438.872 157.366C439.174 156.619 439.759 156.023 440.5 155.707C441.241 155.392 442.077 155.384 442.824 155.685C443.572 155.985 444.169 156.57 444.485 157.311C444.801 158.052 444.81 158.888 444.51 159.635L422.321 214.759C422.02 215.506 421.434 216.103 420.693 216.419C419.952 216.734 419.116 216.743 418.368 216.443Z" fill="#3F3D56"/>
<path d="M226.163 91.764C225.416 91.4624 224.819 90.8767 224.504 90.1355C224.188 89.3944 224.179 88.5582 224.479 87.8105L229.522 75.2824C229.67 74.9115 229.891 74.5736 230.17 74.288C230.449 74.0023 230.782 73.7745 231.149 73.6177C231.517 73.4608 231.911 73.3779 232.311 73.3737C232.71 73.3695 233.107 73.4442 233.477 73.5933C233.848 73.7425 234.185 73.9633 234.471 74.243C234.756 74.5228 234.983 74.856 235.139 75.2237C235.295 75.5913 235.378 75.9862 235.381 76.3856C235.385 76.7851 235.309 77.1813 235.16 77.5516L230.117 90.0798C229.815 90.8268 229.229 91.4237 228.488 91.7394C227.747 92.0552 226.911 92.064 226.163 91.764Z" fill="#3F3D56"/>
<path d="M216.834 114.941C216.087 114.639 215.49 114.054 215.174 113.312C214.859 112.571 214.85 111.735 215.15 110.987L220.193 98.4592C220.341 98.0883 220.561 97.7503 220.841 97.4646C221.12 97.1789 221.453 96.951 221.82 96.7941C222.187 96.6371 222.582 96.5542 222.982 96.55C223.381 96.5458 223.778 96.6204 224.148 96.7696C224.519 96.9188 224.856 97.1396 225.142 97.4194C225.427 97.6992 225.654 98.0325 225.81 98.4002C225.967 98.7679 226.049 99.1628 226.052 99.5624C226.056 99.9619 225.98 100.358 225.83 100.728L220.787 113.257C220.486 114.004 219.9 114.601 219.159 114.916C218.418 115.232 217.582 115.241 216.834 114.941Z" fill="#3F3D56"/>
<path d="M350.8 168.147L290.148 143.734C288.906 143.23 287.913 142.255 287.387 141.021C286.862 139.787 286.846 138.396 287.343 137.151L301.899 100.987C302.403 99.7448 303.378 98.7521 304.612 98.2264C305.845 97.7007 307.237 97.6848 308.482 98.1821L369.133 122.595C370.376 123.099 371.368 124.074 371.894 125.308C372.42 126.541 372.436 127.932 371.939 129.178L357.382 165.341C356.878 166.584 355.903 167.576 354.67 168.102C353.436 168.628 352.045 168.644 350.8 168.147ZM307.46 100.726C306.889 100.499 306.251 100.506 305.686 100.747C305.12 100.988 304.674 101.443 304.443 102.012L289.887 138.173C289.66 138.744 289.667 139.382 289.908 139.947C290.149 140.513 290.604 140.96 291.174 141.191L351.82 165.602C352.391 165.83 353.029 165.823 353.595 165.582C354.161 165.341 354.608 164.886 354.839 164.316L369.395 128.155C369.622 127.585 369.615 126.947 369.374 126.381C369.133 125.816 368.678 125.369 368.108 125.138L307.46 100.726Z" fill="#3F3D56"/>
<path d="M351.159 145.135L351.156 145.134L304.337 126.289C303.685 126.024 303.129 125.565 302.747 124.974C302.364 124.382 302.173 123.688 302.199 122.984L303.083 101.056C303.105 100.509 303.258 99.9759 303.529 99.5008C303.8 99.0258 304.181 98.6227 304.64 98.3254C305.099 98.0281 305.622 97.8453 306.167 97.7924C306.711 97.7395 307.26 97.818 307.768 98.0213L369.728 122.839C370.566 123.175 371.236 123.828 371.594 124.657C371.951 125.485 371.967 126.422 371.637 127.261L371.839 127.465L369.897 129.4L369.896 129.399L354.844 144.386C354.371 144.859 353.769 145.182 353.114 145.315C352.459 145.448 351.779 145.386 351.159 145.135Z" fill="#3F3D56"/>
<path d="M316.002 146.73L295.179 138.349C294.667 138.142 294.257 137.74 294.04 137.231C293.824 136.723 293.818 136.149 294.025 135.636C294.231 135.123 294.633 134.713 295.141 134.496C295.65 134.279 296.224 134.273 296.737 134.479L317.559 142.861C318.072 143.068 318.482 143.47 318.698 143.978C318.915 144.487 318.921 145.061 318.714 145.574C318.508 146.087 318.106 146.497 317.598 146.713C317.089 146.93 316.515 146.936 316.002 146.73Z" fill="#3F3D56"/>
<path d="M328.894 139.793C331.709 139.793 333.991 137.511 333.991 134.695C333.991 131.88 331.709 129.598 328.894 129.598C326.079 129.598 323.797 131.88 323.797 134.695C323.797 137.511 326.079 139.793 328.894 139.793Z" fill="white"/>
<path d="M260.36 392.833L199.708 368.42C198.466 367.916 197.473 366.941 196.947 365.707C196.422 364.474 196.406 363.082 196.903 361.837L211.459 325.673C211.963 324.431 212.938 323.438 214.172 322.912C215.405 322.387 216.797 322.371 218.042 322.868L278.693 347.281C279.936 347.785 280.928 348.76 281.454 349.994C281.98 351.227 281.996 352.618 281.499 353.864L266.942 390.027C266.438 391.27 265.463 392.262 264.23 392.788C262.996 393.314 261.605 393.33 260.36 392.833ZM217.02 325.412C216.449 325.185 215.811 325.192 215.246 325.433C214.68 325.674 214.234 326.129 214.003 326.699L199.447 362.859C199.219 363.43 199.227 364.068 199.468 364.633C199.709 365.199 200.164 365.646 200.733 365.877L261.38 390.288C261.951 390.516 262.589 390.509 263.155 390.268C263.721 390.027 264.168 389.572 264.399 389.002L278.954 352.841C279.182 352.271 279.175 351.633 278.934 351.068C278.692 350.502 278.237 350.055 277.668 349.824L217.02 325.412Z" fill="#3F3D56"/>
<path d="M260.719 369.821L260.716 369.82L213.897 350.974C213.244 350.71 212.689 350.251 212.306 349.659C211.924 349.068 211.733 348.373 211.759 347.669L212.643 325.741C212.665 325.195 212.818 324.661 213.089 324.186C213.359 323.711 213.74 323.308 214.199 323.011C214.658 322.714 215.182 322.531 215.726 322.478C216.271 322.425 216.82 322.504 217.328 322.707L279.288 347.525C280.125 347.861 280.796 348.514 281.154 349.342C281.511 350.171 281.527 351.107 281.196 351.947L281.399 352.15L279.457 354.085L279.456 354.085L264.404 369.072C263.931 369.544 263.329 369.867 262.674 370C262.019 370.134 261.339 370.071 260.719 369.821Z" fill="#3F3D56"/>
<path d="M225.562 371.416L204.739 363.035C204.227 362.828 203.817 362.426 203.6 361.917C203.384 361.409 203.378 360.835 203.585 360.322C203.791 359.809 204.193 359.399 204.701 359.182C205.21 358.965 205.784 358.959 206.297 359.166L227.119 367.547C227.373 367.649 227.605 367.801 227.8 367.992C227.996 368.184 228.152 368.412 228.259 368.664C228.367 368.916 228.423 369.187 228.426 369.461C228.429 369.734 228.377 370.006 228.275 370.26C228.173 370.514 228.022 370.746 227.83 370.941C227.638 371.137 227.41 371.293 227.158 371.4C226.906 371.507 226.635 371.564 226.362 371.567C226.088 371.57 225.816 371.518 225.562 371.416Z" fill="#3F3D56"/>
<path d="M238.454 364.479C241.269 364.479 243.551 362.197 243.551 359.381C243.551 356.566 241.269 354.284 238.454 354.284C235.639 354.284 233.356 356.566 233.356 359.381C233.356 362.197 235.639 364.479 238.454 364.479Z" fill="white"/>
<path d="M284.387 301.247C315.179 301.247 340.14 276.285 340.14 245.494C340.14 214.703 315.179 189.741 284.387 189.741C253.596 189.741 228.635 214.703 228.635 245.494C228.635 276.285 253.596 301.247 284.387 301.247Z" fill="#EDB9B9"/>
<path d="M305.546 280.477L244.895 256.063C243.652 255.56 242.66 254.584 242.134 253.351C241.608 252.117 241.592 250.726 242.09 249.48L256.646 213.317C257.15 212.074 258.125 211.082 259.359 210.556C260.592 210.03 261.984 210.014 263.229 210.512L323.88 234.925C325.122 235.429 326.115 236.404 326.641 237.637C327.166 238.871 327.183 240.262 326.685 241.507L312.129 277.671C311.625 278.913 310.65 279.906 309.416 280.432C308.183 280.957 306.792 280.974 305.546 280.477ZM262.206 213.056C261.635 212.828 260.998 212.836 260.432 213.077C259.867 213.318 259.42 213.773 259.189 214.342L244.634 250.503C244.406 251.074 244.414 251.712 244.655 252.277C244.896 252.842 245.351 253.289 245.92 253.52L306.567 277.932C307.138 278.16 307.776 278.152 308.342 277.911C308.907 277.67 309.355 277.215 309.586 276.645L324.141 240.485C324.369 239.914 324.361 239.276 324.12 238.711C323.879 238.146 323.424 237.699 322.855 237.468L262.206 213.056Z" fill="#3F3D56"/>
<path d="M305.906 257.465L305.903 257.464L259.084 238.618C258.431 238.354 257.876 237.895 257.493 237.303C257.111 236.712 256.919 236.017 256.945 235.313L257.829 213.385C257.851 212.839 258.004 212.306 258.275 211.83C258.546 211.355 258.927 210.952 259.386 210.655C259.845 210.358 260.369 210.175 260.913 210.122C261.457 210.069 262.007 210.148 262.514 210.351L324.475 235.169C325.312 235.505 325.983 236.158 326.34 236.987C326.698 237.815 326.713 238.751 326.383 239.591L326.586 239.794L324.643 241.729L324.643 241.729L309.591 256.716C309.118 257.188 308.516 257.511 307.861 257.645C307.206 257.778 306.526 257.715 305.906 257.465Z" fill="#3F3D56"/>
<path d="M270.749 259.06L249.926 250.678C249.413 250.471 249.004 250.069 248.787 249.561C248.57 249.052 248.565 248.478 248.771 247.965C248.978 247.452 249.379 247.043 249.888 246.826C250.396 246.609 250.97 246.603 251.483 246.809L272.306 255.191C272.819 255.397 273.228 255.799 273.445 256.308C273.662 256.817 273.667 257.39 273.461 257.903C273.254 258.416 272.853 258.826 272.344 259.043C271.836 259.26 271.262 259.266 270.749 259.06Z" fill="#3F3D56"/>
<path d="M133.726 286.305C133.731 285.238 133.503 284.183 133.056 283.215C132.61 282.246 131.957 281.387 131.142 280.698C130.328 280.009 129.373 279.507 128.344 279.227C127.314 278.948 126.236 278.897 125.185 279.079L112.632 256.395L106.382 268.33L119.261 288.042C119.684 289.787 120.732 291.316 122.208 292.34C123.683 293.364 125.482 293.812 127.265 293.598C129.048 293.384 130.69 292.523 131.881 291.179C133.072 289.835 133.728 288.1 133.726 286.305Z" fill="#9E616A"/>
<path d="M125.615 194.678L112.706 193.772C112.706 193.772 111.116 193.556 106.743 200.49C102.369 207.425 87.3794 242.59 87.3794 242.59L113.641 280.709L122.171 272.218L106.922 241.545L121.538 221.017L125.615 194.678Z" fill="#CACACA"/>
<path d="M267.931 235.887C267.066 236.217 266.139 236.353 265.215 236.286C264.292 236.219 263.394 235.95 262.585 235.498C261.777 235.047 261.077 234.424 260.536 233.673C259.994 232.922 259.624 232.061 259.451 231.151L237.183 227.873L244.976 219.15L264.927 223.601C266.475 223.412 268.038 223.797 269.32 224.683C270.603 225.569 271.516 226.895 271.886 228.41C272.256 229.924 272.058 231.522 271.329 232.9C270.6 234.278 269.391 235.34 267.931 235.887Z" fill="#9E616A"/>
<path d="M182.333 479.81H191.849L196.376 443.106L182.332 443.107L182.333 479.81Z" fill="#9E616A"/>
<path d="M179.906 476.703L182.585 476.703L193.042 472.451L198.646 476.703H198.647C201.814 476.703 204.852 477.961 207.091 480.201C209.331 482.44 210.589 485.478 210.59 488.645V489.033L179.907 489.034L179.906 476.703Z" fill="#2F2E41"/>
<path d="M124.932 479.81H134.448L138.975 443.106L124.931 443.107L124.932 479.81Z" fill="#9E616A"/>
<path d="M122.505 476.703L125.184 476.703L135.641 472.451L141.245 476.703H141.246C144.413 476.703 147.451 477.961 149.69 480.201C151.93 482.44 153.188 485.478 153.188 488.645V489.033L122.506 489.034L122.505 476.703Z" fill="#2F2E41"/>
<path d="M128.603 299.069L122.314 336.981L124.428 458.848H139.908L163.69 329.94L180.797 456.729L196.362 456.055L204.129 328.075L197.15 295.408L128.603 299.069Z" fill="#2F2E41"/>
<path d="M185.479 186.325L168.911 183.884L165.388 174.738L142.047 174.706L136.803 186.648L112.951 193.849L132.712 261.732C132.712 261.732 121.822 286.959 124.5 287.067C127.178 287.175 128.498 291.005 126.63 293.017C124.762 295.03 121.013 293.75 122.887 296.807C123.961 298.461 124.68 300.32 124.999 302.266C124.999 302.266 204.032 319.139 199.654 297.382C199.109 294.677 192.506 257.206 192.506 257.206C192.506 257.206 198.256 250.843 195.798 248.315C193.341 245.786 194.639 219.08 194.639 219.08L185.479 186.325Z" fill="#CACACA"/>
<path d="M182.767 189.291L185.478 186.325L222.318 207.926L253.489 220.358L254.094 231.234L213.611 226.4L184.959 212.39L182.767 189.291Z" fill="#CACACA"/>
<path d="M172.524 148.508C172.524 151.068 172.019 153.604 171.039 155.97C170.059 158.336 168.623 160.486 166.812 162.297C165.001 164.108 162.851 165.544 160.485 166.524C158.119 167.504 155.583 168.009 153.022 168.009C151.487 168.006 149.956 167.827 148.461 167.475C144.9 166.62 141.651 164.78 139.086 162.164C136.521 159.549 134.745 156.264 133.96 152.686C133.175 149.108 133.413 145.382 134.647 141.933C135.881 138.484 138.061 135.452 140.938 133.185C143.815 130.917 147.272 129.505 150.914 129.111C154.555 128.716 158.234 129.355 161.53 130.953C164.826 132.552 167.605 135.047 169.549 138.151C171.493 141.255 172.524 144.845 172.524 148.508Z" fill="#9E616A"/>
<path d="M158.246 164.322L144.24 167.023C142.935 167.376 141.567 167.433 140.238 167.189C138.154 166.641 136.758 164.718 135.692 162.845C130.747 154.076 129.19 143.798 131.315 133.957C131.793 131.785 132.816 129.296 134.996 128.854C135.629 128.725 136.345 128.776 136.846 128.368C137.585 127.768 137.342 126.495 136.617 125.879C135.829 125.335 134.9 125.033 133.943 125.009C134.561 124.283 135.326 123.695 136.188 123.286C137.049 122.876 137.988 122.653 138.941 122.632L135.195 120.55C137 119.298 139.424 119.412 141.553 119.953C143.682 120.494 145.73 121.411 147.917 121.616C150.663 121.873 153.372 120.991 156.109 120.65C160.192 120.207 164.316 120.944 167.993 122.774C171.67 124.604 174.745 127.45 176.854 130.975C177.597 132.151 178.068 133.477 178.232 134.859C178.307 135.549 178.22 136.248 177.978 136.899C177.736 137.55 177.346 138.136 176.838 138.61C175.304 139.9 172.888 139.71 171.402 141.055C170.257 142.092 169.972 143.766 169.907 145.309C169.843 146.853 169.916 148.465 169.255 149.861C168.593 151.257 166.867 152.307 165.487 151.613C165.426 149.701 163.222 148.348 161.351 148.742C159.479 149.137 158.097 150.839 157.558 152.675C157.02 154.51 157.179 156.472 157.414 158.37C157.649 160.268 157.953 162.189 157.69 164.084" fill="#2F2E41"/>
<path d="M281.464 252.688C284.279 252.688 286.561 250.406 286.561 247.591C286.561 244.776 284.279 242.494 281.464 242.494C278.649 242.494 276.367 244.776 276.367 247.591C276.367 250.406 278.649 252.688 281.464 252.688Z" fill="#3F3D56"/>
<path d="M391.828 489.951H0.719431C0.528986 489.951 0.346524 489.875 0.212053 489.74C0.077583 489.605 0.0020752 489.422 0.0020752 489.232C0.0020752 489.041 0.077583 488.859 0.212053 488.724C0.346524 488.589 0.528986 488.513 0.719431 488.512H391.828C392.019 488.512 392.202 488.588 392.337 488.723C392.472 488.858 392.548 489.041 392.548 489.232C392.548 489.422 392.472 489.605 392.337 489.74C392.202 489.875 392.019 489.951 391.828 489.951Z" fill="#CACACA"/>
</g>
<defs>
<clipPath id="clip0_59001_100">
<rect width="464" height="489.501" fill="white" transform="translate(0 0.449707)"/>
</clipPath>
</defs>
</svg>
