<svg width="155" height="20" viewBox="0 0 155 20" fill="none" xmlns="http://www.w3.org/2000/svg">
<g clip-path="url(#clip0_59001_203)">
<path d="M14.73 0.0450156C14.0925 -0.138734 13.4288 0.232516 13.245 0.870016L8.44504 17.67C8.26129 18.3075 8.63254 18.9713 9.27004 19.155C9.90754 19.3388 10.5713 18.9675 10.755 18.33L15.555 1.53002C15.7388 0.892516 15.3675 0.228766 14.73 0.0450156ZM17.7525 4.54877C17.2838 5.01752 17.2838 5.77877 17.7525 6.24752L21.1013 9.60002L17.7488 12.9525C17.28 13.4213 17.28 14.1825 17.7488 14.6513C18.2175 15.12 18.9788 15.12 19.4475 14.6513L23.6475 10.4513C24.1163 9.98252 24.1163 9.22127 23.6475 8.75252L19.4475 4.55252C18.9788 4.08377 18.2175 4.08377 17.7488 4.55252L17.7525 4.54877ZM6.25129 4.54877C5.78254 4.08002 5.02129 4.08002 4.55254 4.54877L0.352539 8.74877C-0.116211 9.21752 -0.116211 9.97877 0.352539 10.4475L4.55254 14.6475C5.02129 15.1163 5.78254 15.1163 6.25129 14.6475C6.72004 14.1788 6.72004 13.4175 6.25129 12.9488L2.89879 9.60002L6.25129 6.24752C6.72004 5.77877 6.72004 5.01752 6.25129 4.54877Z" fill="#EDB9B9"/>
</g>
<path d="M37.904 15.18C37.168 15.18 36.4693 15.0306 35.808 14.732C35.1573 14.4333 34.5813 14.0226 34.08 13.5C33.5893 12.9666 33.2053 12.348 32.928 11.644C32.6507 10.94 32.512 10.1773 32.512 9.35598C32.512 8.57731 32.6507 7.84664 32.928 7.16398C33.2053 6.47064 33.5947 5.86264 34.096 5.33998C34.5973 4.81731 35.184 4.40664 35.856 4.10798C36.528 3.80931 37.2587 3.65998 38.048 3.65998C39.1147 3.65998 40.0267 3.88931 40.784 4.34797C41.552 4.79597 42.128 5.39331 42.512 6.13998L40.864 7.35598C40.576 6.79064 40.1707 6.35864 39.648 6.05998C39.136 5.76131 38.576 5.61197 37.968 5.61197C37.488 5.61197 37.0507 5.71331 36.656 5.91598C36.2613 6.11864 35.92 6.39598 35.632 6.74798C35.344 7.09998 35.12 7.50531 34.96 7.96398C34.8107 8.42264 34.736 8.90798 34.736 9.41998C34.736 9.96398 34.816 10.4653 34.976 10.924C35.1467 11.3826 35.3813 11.7826 35.68 12.124C35.9893 12.4653 36.3467 12.7373 36.752 12.94C37.1573 13.132 37.6053 13.228 38.096 13.228C38.672 13.228 39.2213 13.0786 39.744 12.78C40.2773 12.4813 40.7733 12.044 41.232 11.468V13.644C40.2827 14.668 39.1733 15.18 37.904 15.18ZM41.072 10.876H38.784V9.25998H42.896V15.1H41.072V10.876ZM43.9938 12.62C43.9938 12.076 44.1431 11.6013 44.4418 11.196C44.7511 10.78 45.1778 10.46 45.7218 10.236C46.2658 10.012 46.8898 9.89998 47.5938 9.89998C47.9458 9.89998 48.3031 9.92664 48.6658 9.97998C49.0284 10.0333 49.3431 10.1186 49.6098 10.236V9.78798C49.6098 9.25464 49.4498 8.84398 49.1298 8.55598C48.8204 8.26798 48.3564 8.12398 47.7378 8.12398C47.2791 8.12398 46.8418 8.20398 46.4258 8.36398C46.0098 8.52398 45.5724 8.75864 45.1138 9.06798L44.4258 7.65998C44.9804 7.29731 45.5458 7.02531 46.1218 6.84398C46.7084 6.66264 47.3218 6.57197 47.9618 6.57197C49.1564 6.57197 50.0844 6.87064 50.7458 7.46798C51.4178 8.06531 51.7538 8.91864 51.7538 10.028V12.7C51.7538 12.924 51.7911 13.084 51.8658 13.18C51.9511 13.276 52.0844 13.3346 52.2658 13.356V15.1C52.0738 15.132 51.8978 15.1586 51.7378 15.18C51.5884 15.2013 51.4604 15.212 51.3538 15.212C50.9271 15.212 50.6018 15.116 50.3778 14.924C50.1644 14.732 50.0311 14.4973 49.9778 14.22L49.9298 13.788C49.5671 14.2573 49.1138 14.62 48.5698 14.876C48.0258 15.132 47.4711 15.26 46.9058 15.26C46.3511 15.26 45.8498 15.148 45.4018 14.924C44.9644 14.6893 44.6178 14.3746 44.3618 13.98C44.1164 13.5746 43.9938 13.1213 43.9938 12.62ZM49.2098 13.052C49.3271 12.924 49.4231 12.796 49.4978 12.668C49.5724 12.54 49.6098 12.4226 49.6098 12.316V11.468C49.3538 11.3613 49.0764 11.2813 48.7778 11.228C48.4791 11.164 48.1964 11.132 47.9298 11.132C47.3751 11.132 46.9164 11.2546 46.5538 11.5C46.2018 11.7346 46.0258 12.0493 46.0258 12.444C46.0258 12.6573 46.0844 12.86 46.2018 13.052C46.3191 13.244 46.4898 13.3986 46.7138 13.516C46.9378 13.6333 47.2044 13.692 47.5138 13.692C47.8338 13.692 48.1484 13.6333 48.4578 13.516C48.7671 13.388 49.0178 13.2333 49.2098 13.052ZM58.5253 15.26C57.8853 15.26 57.3146 15.116 56.8133 14.828C56.3119 14.54 55.9173 14.1453 55.6293 13.644V15.1H53.7573V3.41998H55.9013V8.18798C56.1999 7.68664 56.5893 7.29198 57.0693 7.00397C57.5599 6.71597 58.1306 6.57197 58.7813 6.57197C59.3253 6.57197 59.8213 6.68931 60.2693 6.92397C60.7173 7.14798 61.1013 7.46264 61.4213 7.86798C61.7519 8.27331 62.0026 8.73731 62.1733 9.25998C62.3546 9.78264 62.4453 10.3426 62.4453 10.94C62.4453 11.5373 62.3439 12.0973 62.1413 12.62C61.9493 13.1426 61.6773 13.6066 61.3253 14.012C60.9733 14.4066 60.5573 14.716 60.0773 14.94C59.6079 15.1533 59.0906 15.26 58.5253 15.26ZM57.9333 13.436C58.2746 13.436 58.5839 13.372 58.8613 13.244C59.1493 13.1053 59.3946 12.924 59.5973 12.7C59.8106 12.476 59.9706 12.2146 60.0773 11.916C60.1946 11.6066 60.2533 11.2866 60.2533 10.956C60.2533 10.4973 60.1573 10.076 59.9653 9.69198C59.7839 9.29731 59.5279 8.98264 59.1973 8.74798C58.8773 8.51331 58.4986 8.39598 58.0613 8.39598C57.7519 8.39598 57.4533 8.47064 57.1653 8.61998C56.8879 8.75864 56.6373 8.95064 56.4133 9.19598C56.1999 9.44131 56.0293 9.71864 55.9013 10.028V12.028C55.9653 12.2413 56.0666 12.4333 56.2053 12.604C56.3546 12.7746 56.5253 12.924 56.7173 13.052C56.9093 13.1693 57.1066 13.2653 57.3093 13.34C57.5226 13.404 57.7306 13.436 57.9333 13.436ZM68.8899 8.57198C68.2392 8.57198 67.6579 8.69998 67.1459 8.95598C66.6339 9.20131 66.2659 9.55864 66.0419 10.028V15.1H63.8979V6.71597H65.8659V8.50798C66.1645 7.93198 66.5432 7.47864 67.0019 7.14798C67.4605 6.81731 67.9459 6.63598 68.4579 6.60398C68.5752 6.60398 68.6659 6.60398 68.7299 6.60398C68.7939 6.60398 68.8472 6.60931 68.8899 6.61998V8.57198ZM70.0854 15.1V6.71597H72.2294V15.1H70.0854ZM70.0854 5.54798V3.41998H72.2294V5.54798H70.0854ZM78.0515 15.26C77.3795 15.26 76.7715 15.148 76.2275 14.924C75.6835 14.6893 75.2195 14.3746 74.8355 13.98C74.4515 13.5746 74.1528 13.116 73.9395 12.604C73.7368 12.0813 73.6355 11.532 73.6355 10.956C73.6355 10.156 73.8115 9.42531 74.1635 8.76398C74.5262 8.10264 75.0382 7.57464 75.6995 7.17998C76.3715 6.77464 77.1608 6.57197 78.0675 6.57197C78.9848 6.57197 79.7688 6.77464 80.4195 7.17998C81.0702 7.57464 81.5662 8.10264 81.9075 8.76398C82.2595 9.41464 82.4355 10.1186 82.4355 10.876C82.4355 11.004 82.4302 11.1373 82.4195 11.276C82.4088 11.404 82.3982 11.5106 82.3875 11.596H75.9075C75.9502 12.0226 76.0728 12.396 76.2755 12.716C76.4888 13.036 76.7555 13.2813 77.0755 13.452C77.4062 13.612 77.7582 13.692 78.1315 13.692C78.5582 13.692 78.9582 13.5906 79.3315 13.388C79.7155 13.1746 79.9768 12.8973 80.1155 12.556L81.9555 13.068C81.7528 13.4946 81.4595 13.8733 81.0755 14.204C80.7022 14.5346 80.2595 14.796 79.7475 14.988C79.2355 15.1693 78.6702 15.26 78.0515 15.26ZM75.8595 10.236H80.2435C80.2008 9.80931 80.0782 9.44131 79.8755 9.13198C79.6835 8.81198 79.4275 8.56664 79.1075 8.39598C78.7875 8.21464 78.4302 8.12398 78.0355 8.12398C77.6515 8.12398 77.2995 8.21464 76.9795 8.39598C76.6702 8.56664 76.4142 8.81198 76.2115 9.13198C76.0195 9.44131 75.9022 9.80931 75.8595 10.236ZM83.7256 3.41998H85.8696V12.412C85.8696 12.796 85.9336 13.0573 86.0616 13.196C86.1896 13.324 86.3656 13.388 86.5896 13.388C86.7603 13.388 86.9363 13.3666 87.1176 13.324C87.299 13.2813 87.459 13.228 87.5976 13.164L87.8856 14.796C87.5976 14.9346 87.2616 15.0413 86.8776 15.116C86.4936 15.1906 86.147 15.228 85.8376 15.228C85.1656 15.228 84.643 15.052 84.2696 14.7C83.907 14.3373 83.7256 13.8253 83.7256 13.164V3.41998ZM95.022 3.73997H97.262L101.438 15.1H99.166L98.11 12.268H94.142L93.102 15.1H90.83L95.022 3.73997ZM97.71 10.716L96.142 6.02798L94.51 10.716H97.71ZM102.24 11.964V6.71597H104.384V11.5C104.384 12.14 104.501 12.6253 104.736 12.956C104.97 13.276 105.317 13.436 105.776 13.436C106.053 13.436 106.325 13.3826 106.592 13.276C106.869 13.1586 107.12 12.988 107.344 12.764C107.578 12.54 107.776 12.2573 107.936 11.916V6.71597H110.08V12.7C110.08 12.924 110.117 13.084 110.192 13.18C110.277 13.276 110.41 13.3346 110.592 13.356V15.1C110.378 15.132 110.197 15.1533 110.048 15.164C109.909 15.1853 109.781 15.196 109.664 15.196C109.28 15.196 108.965 15.1106 108.72 14.94C108.485 14.7586 108.346 14.5133 108.304 14.204L108.256 13.532C107.882 14.0973 107.402 14.5293 106.816 14.828C106.229 15.116 105.584 15.26 104.88 15.26C104.016 15.26 103.36 14.9826 102.912 14.428C102.464 13.8626 102.24 13.0413 102.24 11.964ZM115.49 15.148C114.936 15.148 114.424 15.0413 113.954 14.828C113.496 14.604 113.096 14.2946 112.754 13.9C112.424 13.5053 112.168 13.052 111.986 12.54C111.805 12.028 111.714 11.484 111.714 10.908C111.714 10.3 111.81 9.73464 112.002 9.21198C112.194 8.68931 112.461 8.23064 112.802 7.83598C113.154 7.43064 113.565 7.12131 114.034 6.90798C114.514 6.68397 115.042 6.57197 115.618 6.57197C116.269 6.57197 116.84 6.72131 117.33 7.01998C117.821 7.30798 118.226 7.69731 118.546 8.18798V6.71597H120.418V14.7C120.418 15.532 120.216 16.2413 119.81 16.828C119.416 17.4253 118.866 17.8786 118.162 18.188C117.458 18.508 116.658 18.668 115.762 18.668C114.856 18.668 114.088 18.5133 113.458 18.204C112.829 17.9053 112.29 17.4786 111.842 16.924L113.01 15.788C113.33 16.1826 113.73 16.492 114.21 16.716C114.701 16.94 115.218 17.052 115.762 17.052C116.221 17.052 116.637 16.9666 117.01 16.796C117.394 16.636 117.698 16.38 117.922 16.028C118.157 15.6866 118.274 15.244 118.274 14.7V13.644C117.997 14.124 117.602 14.4973 117.09 14.764C116.589 15.02 116.056 15.148 115.49 15.148ZM116.21 13.436C116.445 13.436 116.669 13.3986 116.882 13.324C117.096 13.2493 117.293 13.148 117.474 13.02C117.656 12.892 117.816 12.7426 117.954 12.572C118.093 12.3906 118.2 12.2093 118.274 12.028V10.028C118.146 9.69731 117.965 9.40931 117.73 9.16398C117.506 8.91864 117.25 8.73198 116.962 8.60398C116.685 8.46531 116.392 8.39598 116.082 8.39598C115.752 8.39598 115.453 8.46531 115.186 8.60398C114.92 8.74264 114.69 8.93998 114.498 9.19598C114.306 9.44131 114.157 9.71864 114.05 10.028C113.954 10.3266 113.906 10.6413 113.906 10.972C113.906 11.3133 113.965 11.6333 114.082 11.932C114.2 12.2306 114.36 12.492 114.562 12.716C114.776 12.94 115.021 13.116 115.298 13.244C115.586 13.372 115.89 13.436 116.21 13.436ZM122.271 11.964V6.71597H124.415V11.5C124.415 12.14 124.532 12.6253 124.767 12.956C125.002 13.276 125.348 13.436 125.807 13.436C126.084 13.436 126.356 13.3826 126.623 13.276C126.9 13.1586 127.151 12.988 127.375 12.764C127.61 12.54 127.807 12.2573 127.967 11.916V6.71597H130.111V12.7C130.111 12.924 130.148 13.084 130.223 13.18C130.308 13.276 130.442 13.3346 130.623 13.356V15.1C130.41 15.132 130.228 15.1533 130.079 15.164C129.94 15.1853 129.812 15.196 129.695 15.196C129.311 15.196 128.996 15.1106 128.751 14.94C128.516 14.7586 128.378 14.5133 128.335 14.204L128.287 13.532C127.914 14.0973 127.434 14.5293 126.847 14.828C126.26 15.116 125.615 15.26 124.911 15.26C124.047 15.26 123.391 14.9826 122.943 14.428C122.495 13.8626 122.271 13.0413 122.271 11.964ZM135.33 15.26C134.615 15.26 133.932 15.1426 133.282 14.908C132.631 14.6733 132.071 14.3266 131.602 13.868L132.37 12.476C132.871 12.8813 133.362 13.18 133.842 13.372C134.332 13.564 134.802 13.66 135.25 13.66C135.666 13.66 135.996 13.5853 136.242 13.436C136.498 13.2866 136.626 13.0626 136.626 12.764C136.626 12.5613 136.556 12.4066 136.418 12.3C136.279 12.1826 136.076 12.0813 135.81 11.996C135.554 11.9106 135.239 11.8146 134.866 11.708C134.247 11.5053 133.73 11.308 133.314 11.116C132.898 10.924 132.583 10.684 132.37 10.396C132.167 10.0973 132.066 9.71864 132.066 9.25998C132.066 8.70531 132.204 8.23064 132.482 7.83598C132.77 7.43064 133.164 7.11598 133.666 6.89198C134.178 6.66798 134.775 6.55597 135.458 6.55597C136.055 6.55597 136.62 6.65197 137.154 6.84398C137.687 7.02531 138.172 7.32398 138.61 7.73998L137.746 9.09998C137.319 8.76931 136.914 8.52931 136.53 8.37998C136.146 8.21998 135.756 8.13998 135.362 8.13998C135.138 8.13998 134.924 8.16664 134.722 8.21998C134.53 8.27331 134.37 8.36398 134.242 8.49198C134.124 8.60931 134.066 8.77998 134.066 9.00398C134.066 9.20664 134.119 9.36664 134.226 9.48398C134.343 9.59064 134.514 9.68664 134.738 9.77198C134.972 9.85731 135.255 9.95331 135.586 10.06C136.258 10.252 136.823 10.4493 137.282 10.652C137.751 10.8546 138.103 11.1053 138.338 11.404C138.572 11.692 138.69 12.092 138.69 12.604C138.69 13.436 138.386 14.0866 137.778 14.556C137.17 15.0253 136.354 15.26 135.33 15.26ZM145.125 14.668C144.944 14.7426 144.725 14.828 144.469 14.924C144.213 15.02 143.936 15.0946 143.637 15.148C143.349 15.212 143.056 15.244 142.757 15.244C142.362 15.244 142 15.1746 141.669 15.036C141.338 14.8973 141.072 14.6786 140.869 14.38C140.677 14.0706 140.581 13.6706 140.581 13.18V8.36398H139.477V6.71597H140.581V3.99598H142.725V6.71597H144.485V8.36398H142.725V12.46C142.736 12.748 142.816 12.956 142.965 13.084C143.114 13.212 143.301 13.276 143.525 13.276C143.749 13.276 143.968 13.2386 144.181 13.164C144.394 13.0893 144.565 13.0253 144.693 12.972L145.125 14.668ZM150.02 15.26C149.337 15.26 148.724 15.148 148.18 14.924C147.636 14.6893 147.172 14.3693 146.788 13.964C146.415 13.5586 146.127 13.0946 145.924 12.572C145.721 12.0493 145.62 11.5 145.62 10.924C145.62 10.3373 145.721 9.78264 145.924 9.25998C146.127 8.73731 146.415 8.27331 146.788 7.86798C147.172 7.46264 147.636 7.14798 148.18 6.92397C148.724 6.68931 149.337 6.57197 150.02 6.57197C150.703 6.57197 151.311 6.68931 151.844 6.92397C152.388 7.14798 152.852 7.46264 153.236 7.86798C153.62 8.27331 153.908 8.73731 154.1 9.25998C154.303 9.78264 154.404 10.3373 154.404 10.924C154.404 11.5 154.303 12.0493 154.1 12.572C153.908 13.0946 153.62 13.5586 153.236 13.964C152.863 14.3693 152.404 14.6893 151.86 14.924C151.316 15.148 150.703 15.26 150.02 15.26ZM147.828 10.924C147.828 11.4146 147.924 11.852 148.116 12.236C148.308 12.6093 148.569 12.9026 148.9 13.116C149.231 13.3293 149.604 13.436 150.02 13.436C150.425 13.436 150.793 13.3293 151.124 13.116C151.455 12.892 151.716 12.5933 151.908 12.22C152.111 11.836 152.212 11.3986 152.212 10.908C152.212 10.428 152.111 9.99598 151.908 9.61198C151.716 9.22798 151.455 8.92931 151.124 8.71598C150.793 8.50264 150.425 8.39598 150.02 8.39598C149.604 8.39598 149.231 8.50798 148.9 8.73198C148.569 8.94531 148.308 9.24398 148.116 9.62798C147.924 10.0013 147.828 10.4333 147.828 10.924Z" fill="#100D05"/>
<defs>
<clipPath id="clip0_59001_203">
<rect width="24" height="19.2" fill="white"/>
</clipPath>
</defs>
</svg>
