<svg width="24" height="20" viewBox="0 0 24 20" fill="none" xmlns="http://www.w3.org/2000/svg">
<g clip-path="url(#clip0_59001_201)">
<path d="M14.73 0.0450156C14.0925 -0.138734 13.4288 0.232516 13.245 0.870016L8.44504 17.67C8.26129 18.3075 8.63254 18.9713 9.27004 19.155C9.90754 19.3388 10.5713 18.9675 10.755 18.33L15.555 1.53002C15.7388 0.892516 15.3675 0.228766 14.73 0.0450156ZM17.7525 4.54877C17.2838 5.01752 17.2838 5.77877 17.7525 6.24752L21.1013 9.60002L17.7488 12.9525C17.28 13.4213 17.28 14.1825 17.7488 14.6513C18.2175 15.12 18.9788 15.12 19.4475 14.6513L23.6475 10.4513C24.1163 9.98252 24.1163 9.22127 23.6475 8.75252L19.4475 4.55252C18.9788 4.08377 18.2175 4.08377 17.7488 4.55252L17.7525 4.54877ZM6.25129 4.54877C5.78254 4.08002 5.02129 4.08002 4.55254 4.54877L0.352539 8.74877C-0.116211 9.21752 -0.116211 9.97877 0.352539 10.4475L4.55254 14.6475C5.02129 15.1163 5.78254 15.1163 6.25129 14.6475C6.72004 14.1788 6.72004 13.4175 6.25129 12.9488L2.89879 9.60002L6.25129 6.24752C6.72004 5.77877 6.72004 5.01752 6.25129 4.54877Z" fill="#EDB9B9"/>
</g>
<defs>
<clipPath id="clip0_59001_201">
<rect width="24" height="19.2" fill="white"/>
</clipPath>
</defs>
</svg>
